# xmcd
#
# Track frame offsets:
#	150
#	20627
#	45379
#	64956
#	83483
#	104635
#	123237
#	142739
#	168166
#	192768
#	205520
#	222922
#	238224
#	256901
#	275578
#	296880
#
# Disc length: 4236 seconds
#
# Revision: 1
# Processed by: cddbd v1.4PL0 Copyright (c) Steve Scherf et al.
# Submitted via: audiograbber 1.80
#
DISCID=e7108a10
DTITLE=Various Artist - 99,9% White Blues
DYEAR=1900
DGENRE=
TTITLE0=The Jeff Healey Band "Cruel Little Number"
TTITLE1=Rick Derringer "I'm Set On You"
TTITLE2=The Beat Daddys "Different Name"
TTITLE3=Pat Travers "Just Enough Money"
TTITLE4=Dave Hole "The Bottle"
TTITLE5=Tref "4x4"
TTITLE6=Omar and The Howlers "Black Bottom"
TTITLE7=Chris Anderson "Ain't Giving Up On Love"
TTITLE8=Kenny Wayne Shepherd Band "Somehow, Somewhere, Someway"
TTITLE9=Rick Derringer "I'm In Love"
TTITLE10=Pat Travers "Time Out"
TTITLE11=Omar and The Howlers "Life Is Just A Circle"
TTITLE12=The Beat Daddys "Livin' This Love:
TTITLE13=Dave Hole "Wildfire"
TTITLE14=Kenny Wayne Shepherd Band "Nothing To Do With Love"
TTITLE15=David Lee Roth "Just A Gigolo"
EXTD=
EXTT0=
EXTT1=
EXTT2=
EXTT3=
EXTT4=
EXTT5=
EXTT6=
EXTT7=
EXTT8=
EXTT9=
EXTT10=
EXTT11=
EXTT12=
EXTT13=
EXTT14=
EXTT15=
PLAYORDER=
